<?xml version="1.0" encoding="utf-8"?>
<svg version="1.0" width="192px" height="192px" viewBox="0 0 192 192" preserveAspectRatio="xMidYMid meet" xmlns="http://www.w3.org/2000/svg">
  <g transform="matrix(0.046943, 0, 0, -0.046943, 815.90542, -5077.517729)" fill="#000000" stroke="none" style="transform-origin: -877.775px 5097.19px;">
    <g transform="matrix(1.011924, 0, 0, 1.011924, -29.634355, -41.391225)">
      <path d="M 1514.245 4450.991 C 1425.18 4381.92 1548.781 4147.442 1869.598 3777.548 C 1936.851 3700.297 2177.691 3470.363 2213.135 3450.369 C 2222.224 3444.916 2183.144 3422.195 2087.717 3374.936 C 1934.125 3298.595 1934.125 3298.595 1922.31 3370.392 C 1915.948 3411.29 1885.957 3453.096 1862.327 3453.096 C 1844.151 3453.096 1794.165 3400.384 1785.077 3371.301 C 1779.624 3354.033 1774.171 3352.216 1745.088 3356.76 C 1600.584 3382.207 1580.59 3383.116 1544.237 3372.21 C 1524.242 3366.757 1507.883 3355.851 1507.883 3348.58 C 1507.883 3324.951 1555.143 3291.324 1649.661 3246.791 L 1744.179 3203.167 L 1744.179 3160.452 C 1744.179 3095.017 1748.723 3089.564 1799.618 3089.564 C 1825.065 3089.564 1875.051 3095.926 1911.404 3103.196 C 1956.845 3112.284 1985.928 3114.102 2000.469 3108.649 C 2012.284 3104.105 2045.002 3097.743 2073.176 3094.108 C 2132.25 3086.837 2162.241 3098.652 2162.241 3129.552 C 2162.241 3149.546 2168.603 3151.364 2283.115 3170.45 C 2348.551 3182.264 2442.161 3193.17 2490.329 3195.897 C 2570.306 3200.441 2582.12 3199.532 2640.286 3175.903 C 2722.989 3142.276 2991.094 3075.022 3134.689 3052.302 C 3269.196 3030.49 3441.874 3025.946 3491.859 3043.213 C 3519.124 3052.302 3525.486 3058.664 3525.486 3078.658 C 3525.486 3107.74 3462.777 3168.632 3375.529 3225.888 L 3315.546 3264.968 L 3353.717 3286.78 C 3374.62 3298.595 3400.976 3310.409 3412.791 3313.136 C 3424.606 3315.862 3434.603 3324.042 3434.603 3331.312 C 3434.603 3338.583 3433.694 3344.036 3432.785 3344.036 C 3430.968 3344.036 3410.973 3337.674 3387.344 3330.404 L 3344.629 3317.68 L 3341.902 3487.631 L 3339.176 3657.582 L 3365.532 3687.574 C 3380.982 3703.024 3399.159 3716.656 3407.338 3716.656 C 3427.332 3716.656 3461.868 3743.012 3461.868 3758.463 C 3461.868 3765.733 3455.506 3771.186 3447.327 3771.186 C 3439.147 3771.186 3425.515 3780.274 3416.426 3791.18 C 3403.703 3806.631 3388.253 3812.084 3342.811 3814.81 L 3284.646 3819.354 L 3255.563 3879.337 C 3212.848 3967.493 3102.88 4146.533 3090.156 4151.077 C 3073.797 4156.53 3081.068 4135.627 3156.501 3966.585 L 3221.028 3821.172 L 3184.675 3820.263 C 3161.045 3819.354 3087.43 3793.907 2980.188 3748.465 C 2887.487 3710.295 2803.875 3674.85 2792.969 3671.215 C 2777.519 3664.853 2739.348 3692.118 2559.4 3838.44 C 2312.198 4039.291 2133.158 4171.98 1971.387 4273.769 C 1727.82 4427.361 1566.049 4490.071 1514.245 4450.991 Z M 3288.281 3375.845 C 3293.734 3354.942 3300.096 3331.312 3302.823 3324.042 C 3306.458 3314.045 3301.005 3307.683 3284.646 3304.048 C 3264.652 3298.595 3245.566 3308.592 3174.678 3358.577 C 3127.418 3392.204 3089.248 3422.195 3089.248 3424.922 C 3090.156 3427.648 3112.877 3444.916 3140.142 3462.184 C 3168.316 3479.452 3205.578 3510.352 3223.754 3530.346 L 3257.381 3566.699 L 3268.287 3490.358 C 3273.74 3448.552 3282.828 3396.748 3288.281 3375.845 Z" style="fill: none; stroke: rgb(0, 0, 0); stroke-linecap: round; stroke-linejoin: round; vector-effect: non-scaling-stroke; stroke-width: 10px;"/>
      <path style="stroke: rgb(0, 0, 0); paint-order: stroke; fill: none; vector-effect: non-scaling-stroke; stroke-width: 12px; stroke-linecap: round; stroke-linejoin: round;" d="M 3742.773 2817.783 C 3732.383 2807.393 3721.94 2798.836 3708.655 2792.194 C 3704.634 2790.183 3699.715 2790.242 3695.86 2787.929 C 3656.19 2764.126 3725.752 2796.477 3674.536 2770.87 C 3670.515 2768.859 3665.763 2768.615 3661.742 2766.604 C 3648.094 2759.781 3637.006 2747.84 3623.358 2741.016 C 3619.337 2739.006 3614.419 2739.064 3610.564 2736.751 C 3607.116 2734.682 3605.482 2730.29 3602.034 2728.222 C 3534.084 2687.451 3638.339 2758.649 3580.71 2715.427 C 3569.392 2706.939 3554.291 2705.546 3542.327 2698.368 C 3527.08 2689.219 3512.071 2679.441 3495.414 2672.778 C 3491.24 2671.109 3486.64 2670.524 3482.619 2668.514 C 3478.035 2666.222 3474.409 2662.277 3469.825 2659.984 C 3463.007 2656.576 3446.348 2653.277 3439.971 2651.455 C 3427.402 2647.863 3414.465 2640.806 3401.588 2638.66 C 3397.381 2637.959 3393 2639.361 3388.793 2638.66 C 3375.653 2636.47 3363.479 2628.479 3350.41 2625.865 C 3347.622 2625.308 3344.577 2626.764 3341.88 2625.865 C 3339.973 2625.23 3339.523 2622.237 3337.616 2621.601 C 3333.556 2620.248 3320.585 2621.601 3316.291 2621.601 C 3294.967 2621.601 3273.643 2621.601 3252.319 2621.601 C 3235.26 2621.601 3218.2 2621.601 3201.141 2621.601 C 3194.033 2621.601 3186.787 2620.207 3179.817 2621.601 C 3176.7 2622.224 3174.371 2625.094 3171.288 2625.865 C 3164.392 2627.589 3156.933 2624.471 3149.963 2625.865 C 3146.846 2626.489 3144.551 2629.507 3141.433 2630.131 C 3137.251 2630.967 3132.846 2629.429 3128.639 2630.131 C 3119.77 2631.609 3111.919 2637.182 3103.05 2638.66 C 3098.844 2639.361 3094.463 2637.959 3090.256 2638.66 C 3077.89 2640.721 3068.503 2649.394 3056.137 2651.455 C 3051.931 2652.156 3047.525 2650.618 3043.343 2651.455 C 3034.704 2653.182 3026.334 2657.839 3017.754 2659.984 C 3011.214 2661.62 3002.813 2657.857 2996.43 2659.984 C 2993.414 2660.99 2990.916 2663.244 2987.9 2664.249 C 2983.854 2665.598 2979.371 2664.249 2975.106 2664.249 C 2966.075 2664.249 2953.952 2666.424 2945.252 2664.249 C 2934.195 2661.485 2922.159 2655.13 2911.133 2651.455 C 2901.315 2648.182 2890.792 2647.002 2881.28 2642.925 C 2864.057 2635.544 2848.689 2620.264 2834.367 2608.807 C 2830.364 2605.605 2825.575 2603.479 2821.572 2600.277 C 2810.65 2591.539 2802.641 2579.161 2791.718 2570.423 C 2787.716 2567.221 2782.548 2565.518 2778.924 2561.893 C 2775.3 2558.269 2774.019 2552.723 2770.394 2549.099 C 2766.77 2545.475 2761.602 2543.772 2757.6 2540.569 C 2745.842 2531.163 2733.07 2517.957 2723.481 2506.451 C 2713.113 2494.009 2703.754 2480.725 2693.628 2468.068 C 2686.166 2458.741 2675.202 2452.03 2668.039 2442.479 C 2663.141 2435.948 2660.142 2427.685 2655.244 2421.154 C 2652.832 2417.938 2649.127 2415.842 2646.715 2412.625 C 2641.839 2406.124 2643.061 2402.066 2638.185 2395.565 C 2635.772 2392.349 2632.068 2390.253 2629.655 2387.036 C 2621.028 2375.533 2629.723 2380.041 2621.126 2365.712 C 2615.723 2356.708 2605.204 2349.127 2599.801 2340.123 C 2594.375 2331.079 2593.612 2319.076 2587.007 2310.269 C 2584.595 2307.052 2580.546 2305.187 2578.478 2301.739 C 2573.051 2292.696 2572.288 2280.693 2565.683 2271.885 C 2563.27 2268.669 2559.566 2266.573 2557.153 2263.356 C 2550.534 2254.53 2546.198 2242.659 2540.094 2233.502 C 2531.031 2219.907 2530.265 2198.085 2518.77 2186.589 C 2516.522 2184.342 2512.488 2184.572 2510.24 2182.324 C 2504.808 2176.893 2500.906 2163.655 2497.446 2156.735 C 2495.154 2152.15 2490.537 2148.804 2488.916 2143.941 C 2488.017 2141.244 2489.815 2138.109 2488.916 2135.411 C 2488.916 2135.409 2480.387 2126.883 2480.387 2126.882 C 2478.563 2123.234 2477.945 2117.735 2476.122 2114.087 C 2473.724 2109.292 2465.011 2106.344 2463.327 2101.293 C 2462.428 2098.596 2464.226 2095.461 2463.327 2092.763 C 2461.068 2085.984 2449.49 2082.147 2446.268 2075.704 C 2445.632 2074.433 2446.904 2072.711 2446.268 2071.439 C 2446.154 2071.211 2437.853 2063.137 2437.739 2062.909 C 2437.103 2061.637 2438.374 2059.916 2437.739 2058.644 C 2436.839 2056.846 2434.373 2056.178 2433.473 2054.38 C 2432.838 2053.109 2434.479 2051.121 2433.473 2050.115 C 2432.468 2049.11 2430.214 2051.121 2429.209 2050.115 C 2428.203 2049.11 2430.214 2046.856 2429.209 2045.85 C 2428.204 2044.845 2425.949 2046.856 2424.944 2045.85 C 2423.939 2044.845 2425.949 2042.591 2424.944 2041.585 C 2423.939 2040.58 2421.685 2042.591 2420.679 2041.585 C 2419.674 2040.58 2421.685 2038.326 2420.679 2037.32 C 2419.55 2036.191 2409.641 2037.32 2407.885 2037.32 C 2393.669 2037.32 2379.453 2037.32 2365.236 2037.32 C 2357.312 2037.32 2347.174 2035.439 2339.647 2037.32 C 2336.564 2038.091 2334.202 2040.814 2331.118 2041.585 C 2328.36 2042.275 2325.347 2040.896 2322.588 2041.585 C 2319.504 2042.356 2317.074 2044.845 2314.059 2045.85 C 2288.84 2054.257 2263.916 2065.063 2241.557 2079.968 C 2235.651 2083.905 2230.403 2084.561 2224.497 2088.498 C 2218.69 2092.37 2213.246 2097.421 2207.438 2101.293 C 2204.793 2103.056 2201.156 2103.31 2198.908 2105.557 C 2196.661 2107.805 2196.891 2111.84 2194.644 2114.087 C 2189.447 2119.284 2178.516 2121.685 2173.32 2126.882 C 2171.072 2129.129 2170.818 2132.766 2169.055 2135.411 C 2162.524 2145.208 2166.618 2133.584 2156.26 2143.941 C 2154.013 2146.189 2154.243 2150.223 2151.995 2152.47 C 2149.748 2154.718 2145.713 2154.487 2143.466 2156.735 C 2141.218 2158.983 2141.108 2162.722 2139.201 2165.265 C 2129.757 2177.857 2113.808 2186.296 2105.082 2199.384 C 2103.319 2202.028 2103.065 2205.666 2100.818 2207.913 C 2098.57 2210.161 2094.536 2209.931 2092.288 2212.178 C 2090.04 2214.426 2089.93 2218.165 2088.023 2220.708 C 2083.198 2227.141 2075.101 2230.871 2070.964 2237.767 C 2068.651 2241.622 2069.012 2246.706 2066.699 2250.561 C 2064.63 2254.009 2060.582 2255.874 2058.169 2259.091 C 2049.662 2270.434 2041.124 2281.818 2032.581 2293.21 C 2023.962 2304.701 2019.809 2320.19 2011.256 2331.593 C 2008.844 2334.81 2005.139 2336.906 2002.727 2340.123 C 1994.354 2351.286 1991.734 2366.374 1985.668 2378.506 C 1984.768 2380.305 1982.518 2381.098 1981.403 2382.771 C 1976.205 2390.567 1974.225 2400.871 1968.608 2408.36 C 1966.196 2411.577 1962.491 2413.673 1960.079 2416.889 C 1954.14 2424.807 1956.01 2433.556 1951.549 2442.479 C 1950.65 2444.277 1948.399 2445.071 1947.284 2446.743 C 1941.205 2455.862 1938.486 2466.607 1934.49 2476.597 C 1921.952 2507.941 1908.652 2539.058 1896.106 2570.423 C 1891.9 2580.939 1885.83 2595.498 1879.047 2604.542 C 1876.635 2607.758 1872.316 2609.475 1870.517 2613.071 C 1869.246 2615.614 1871.416 2618.904 1870.517 2621.601 C 1868.687 2627.093 1859.553 2633.168 1857.723 2638.66 C 1856.824 2641.357 1858.412 2644.431 1857.723 2647.19 C 1855.271 2656.997 1844.951 2664.204 1840.664 2672.778 C 1840.028 2674.05 1841.299 2675.772 1840.664 2677.044 C 1835.546 2687.279 1820.192 2692.397 1815.075 2702.633 C 1814.439 2703.904 1816.08 2705.892 1815.075 2706.898 C 1814.069 2707.903 1812.081 2706.262 1810.81 2706.898 C 1809.012 2707.797 1808.343 2710.263 1806.545 2711.162 C 1805.274 2711.798 1803.286 2710.157 1802.28 2711.162 C 1801.275 2712.167 1803.286 2714.422 1802.28 2715.427 C 1801.275 2716.432 1799.287 2714.791 1798.015 2715.427 C 1796.217 2716.326 1795.549 2718.792 1793.751 2719.691 C 1789.201 2721.966 1781.24 2717.416 1776.691 2719.691 C 1774.893 2720.591 1774.334 2723.321 1772.426 2723.957 C 1768.381 2725.305 1763.897 2723.957 1759.632 2723.957 C 1748.259 2723.957 1736.886 2723.957 1725.513 2723.957 C 1715.323 2723.957 1701.314 2725.941 1691.395 2723.957 C 1688.278 2723.333 1685.949 2720.462 1682.865 2719.691 C 1672.161 2717.015 1659.451 2722.367 1648.747 2719.691 C 1645.663 2718.92 1643.233 2716.432 1640.217 2715.427 C 1633.82 2713.295 1625.29 2717.56 1618.893 2715.427 C 1616.986 2714.791 1616.427 2712.061 1614.628 2711.162 C 1609.216 2708.456 1595.635 2711.162 1589.039 2711.162 C 1566.294 2711.162 1543.548 2711.162 1520.802 2711.162 C 1499.301 2711.162 1480.848 2713.108 1461.095 2719.691 C 1457.687 2720.827 1446.441 2717.286 1444.035 2719.691 C 1443.03 2720.697 1445.041 2722.951 1444.035 2723.957 C 1442.614 2725.378 1436.927 2722.535 1435.506 2723.957 C 1434.5 2724.962 1436.141 2726.95 1435.506 2728.222 C 1434.607 2730.02 1432.14 2730.688 1431.241 2732.486 C 1429.982 2735.003 1431.241 2742.414 1431.241 2745.281 C 1431.241 2753.81 1431.241 2762.34 1431.241 2770.87 C 1431.241 2782.471 1428.443 2798.061 1431.241 2809.253 C 1432.012 2812.337 1434.735 2814.699 1435.506 2817.783 C 1436.885 2823.299 1434.39 2829.266 1435.506 2834.842 C 1439.943 2857.027 1438.349 2839.108 1444.035 2856.166 C 1448.733 2870.26 1451.272 2884.92 1456.83 2898.814 C 1461.931 2911.568 1469.561 2924.214 1473.889 2937.198 C 1474.788 2939.895 1471.879 2943.717 1473.889 2945.727 C 1474.894 2946.732 1477.149 2944.722 1478.154 2945.727 C 1478.819 2946.392 1478.818 2962.122 1478.154 2962.787 C 1477.149 2963.792 1474.895 2961.782 1473.889 2962.787 C 1472.884 2963.792 1474.894 2966.046 1473.889 2967.051 C 1472.176 2968.764 1463.507 2966.247 1461.095 2967.051 C 1451.069 2970.393 1441.96 2973.437 1431.241 2975.581 C 1422.877 2977.254 1414.182 2975.581 1405.652 2975.581 C 1390.014 2975.581 1374.377 2975.581 1358.739 2975.581 C 1323.199 2975.581 1287.659 2975.581 1252.118 2975.581 C 1242.167 2975.581 1232.216 2975.581 1222.265 2975.581 C 1219.398 2975.581 1211.987 2974.323 1209.47 2975.581 C 1207.672 2976.48 1207.004 2978.947 1205.205 2979.846 C 1201.391 2981.753 1196.457 2978.497 1192.411 2979.846 C 1113.565 3006.128 1292.785 2955.817 1179.617 2984.111 C 1173.449 2985.653 1168.589 2990.63 1162.557 2992.64 C 1155.516 2994.987 1147.962 2996.684 1141.233 3001.169 C 1131.472 3007.677 1143.903 3004.545 1128.439 3009.7 C 1127.09 3010.149 1125.445 3009.064 1124.174 3009.7 C 1118.017 3012.778 1121.801 3015.15 1115.644 3018.229 C 1109.761 3021.171 1111.83 3013.064 1107.115 3022.494 C 1106.479 3023.766 1108.12 3025.754 1107.115 3026.759 C 1106.109 3027.764 1103.855 3025.753 1102.85 3026.759 C 1101.845 3027.764 1103.855 3030.018 1102.85 3031.024 C 1101.845 3032.029 1099.59 3030.018 1098.585 3031.024 C 1096.575 3033.034 1098.585 3036.71 1098.585 3039.553 C 1098.585 3049.504 1098.585 3059.456 1098.585 3069.407 C 1098.585 3075.583 1095.882 3089.59 1098.585 3094.995 C 1099.484 3096.794 1101.734 3097.588 1102.85 3099.261 C 1106.376 3104.551 1107.565 3111.234 1111.379 3116.32 C 1122.887 3131.664 1135.984 3145.19 1149.763 3158.968 C 1152.606 3161.811 1155.076 3165.085 1158.292 3167.498 C 1160.835 3169.405 1164.574 3169.515 1166.822 3171.763 C 1169.07 3174.011 1168.839 3178.045 1171.087 3180.292 C 1172.092 3181.298 1174.08 3179.657 1175.352 3180.292 C 1178.948 3182.09 1182.083 3185.225 1183.881 3188.821 C 1185.652 3192.363 1183.881 3201.838 1183.881 3205.881 C 1183.881 3207.637 1185.01 3217.547 1183.881 3218.676 C 1182.876 3219.681 1180.622 3217.67 1179.617 3218.676 C 1178.611 3219.681 1180.252 3221.669 1179.617 3222.941 C 1176.988 3228.198 1163.55 3241.636 1158.292 3244.265 C 1157.021 3244.9 1155.299 3243.629 1154.028 3244.265 C 1146.561 3247.998 1152.965 3249.061 1145.498 3252.794 C 1144.227 3253.43 1142.505 3252.158 1141.233 3252.794 C 1133.662 3256.58 1127.48 3261.803 1119.909 3265.589 C 1118.638 3266.225 1116.649 3264.584 1115.644 3265.589 C 1114.639 3266.594 1116.65 3268.848 1115.644 3269.854 C 1114.225 3271.273 1099.445 3269.567 1098.585 3269.854 C 1094.167 3271.326 1090.021 3276.268 1085.791 3278.383 C 1083.516 3279.521 1079.536 3277.246 1077.261 3278.383 C 1073.664 3280.181 1072.546 3285.641 1068.731 3286.913 C 1066.034 3287.812 1062.899 3286.014 1060.202 3286.913 C 1058.294 3287.549 1057.844 3290.542 1055.937 3291.178 C 1053.239 3292.077 1050.104 3290.279 1047.407 3291.178 C 1045.5 3291.813 1045.049 3294.806 1043.142 3295.442 C 1040.445 3296.341 1037.31 3294.543 1034.613 3295.442 C 1029.121 3297.273 1023.046 3306.406 1017.553 3308.237 C 1014.856 3309.136 1011.782 3307.547 1009.024 3308.237 C 1003.085 3309.722 992.739 3317.672 987.7 3321.031 C 986.027 3322.147 985.342 3324.661 983.435 3325.296 C 980.738 3326.195 977.603 3324.397 974.905 3325.296 C 969.853 3326.98 966.907 3335.693 962.111 3338.091 C 960.839 3338.727 959.117 3337.455 957.846 3338.091 C 951.022 3341.502 947.611 3351.738 940.787 3355.15 C 939.515 3355.786 937.527 3354.145 936.522 3355.15 C 935.517 3356.155 937.527 3358.41 936.522 3359.415 C 935.517 3360.42 933.262 3358.41 932.257 3359.415 C 931.252 3360.42 932.893 3362.408 932.257 3363.68 C 931.358 3365.478 928.891 3366.146 927.992 3367.944 C 926.721 3370.487 927.992 3373.631 927.992 3376.474 C 927.992 3385.003 927.992 3393.533 927.992 3402.063 C 927.992 3413.436 927.992 3424.808 927.992 3436.181 C 927.992 3437.937 926.863 3447.847 927.992 3448.976 C 928.997 3449.981 931.252 3447.971 932.257 3448.976 C 933.262 3449.981 931.621 3451.969 932.257 3453.241 C 932.258 3453.244 940.785 3461.767 940.787 3461.77 C 942.55 3464.415 942.804 3468.052 945.052 3470.3 C 947.299 3472.548 950.936 3472.802 953.581 3474.565 C 959.448 3478.476 957.968 3481.145 962.111 3487.359 C 966.537 3493.999 972.902 3495.975 979.17 3500.154 C 988.968 3506.686 977.341 3502.589 987.7 3512.948 C 987.703 3512.951 1004.755 3521.475 1004.759 3521.478 C 1078.621 3576.871 959.818 3492.935 1021.818 3534.272 C 1035.841 3543.622 1046.212 3559.065 1060.202 3568.391 C 1069.541 3574.617 1081.094 3578.729 1090.055 3585.45 C 1097.423 3590.976 1103.744 3597.419 1111.379 3602.509 C 1116.669 3606.036 1123.149 3607.513 1128.439 3611.039 C 1131.784 3613.27 1133.372 3617.771 1136.968 3619.569 C 1138.24 3620.205 1140.228 3618.564 1141.233 3619.569 C 1143.481 3621.817 1143.25 3625.851 1145.498 3628.098 C 1146.503 3629.104 1148.491 3627.463 1149.763 3628.098 C 1154.881 3630.657 1157.439 3638.334 1162.557 3640.893 C 1163.829 3641.529 1165.817 3639.888 1166.822 3640.893 C 1167.827 3641.898 1166.186 3643.886 1166.822 3645.158 C 1168.62 3648.754 1173.121 3650.342 1175.352 3653.687 C 1208.646 3703.63 1166.918 3641.086 1179.617 3666.482 C 1181.415 3670.078 1185.916 3671.666 1188.146 3675.011 C 1188.147 3675.013 1196.675 3692.069 1196.676 3692.071 C 1197.365 3694.829 1195.986 3697.842 1196.676 3700.6 C 1200.276 3714.999 1204.777 3729.168 1209.47 3743.248 C 1210.476 3746.264 1212.964 3748.694 1213.735 3751.778 C 1215.114 3757.295 1212.356 3763.321 1213.735 3768.837 C 1214.506 3771.921 1217.229 3774.283 1218 3777.367 C 1219.379 3782.884 1218 3788.74 1218 3794.426 C 1218 3811.486 1218 3828.545 1218 3845.604 C 1218 3862.664 1218 3879.723 1218 3896.782 C 1218 3905.312 1219.673 3914.007 1218 3922.371 C 1217.376 3925.488 1214.506 3927.817 1213.735 3930.901 C 1212.011 3937.796 1215.129 3945.255 1213.735 3952.225 C 1213.112 3955.342 1210.241 3957.67 1209.47 3960.754 C 1208.781 3963.513 1210.16 3966.526 1209.47 3969.284 C 1207.275 3978.063 1203.136 3986.094 1200.941 3994.873 C 1200.251 3997.631 1201.84 4000.705 1200.941 4003.402 C 1200.305 4005.31 1197.312 4005.76 1196.676 4007.668 C 1195.777 4010.365 1197.575 4013.5 1196.676 4016.197 C 1196.04 4018.104 1193.31 4018.664 1192.411 4020.462 C 1164.704 4075.876 1195.416 4015.711 1188.146 4037.521 C 1184.176 4049.43 1175.753 4059.974 1171.087 4071.64 C 1157.651 4105.229 1138.538 4134.418 1119.909 4165.466 C 1114.236 4174.92 1113.233 4186.143 1107.115 4195.32 C 1102.597 4202.096 1098.901 4209.773 1094.32 4216.644 C 1093.205 4218.316 1090.691 4219.001 1090.055 4220.909 C 1089.156 4223.606 1090.745 4226.68 1090.055 4229.438 C 1087.071 4241.374 1075.405 4251.511 1072.996 4263.557 C 1072.16 4267.739 1073.832 4272.169 1072.996 4276.351 C 1070.361 4289.526 1058.533 4301.752 1055.937 4314.735 C 1055.1 4318.917 1056.773 4323.347 1055.937 4327.529 C 1055.313 4330.646 1052.443 4332.975 1051.672 4336.059 C 1050.982 4338.817 1052.229 4341.8 1051.672 4344.588 C 1047.234 4366.777 1048.829 4348.851 1043.142 4365.912 C 1041.436 4371.03 1044.848 4377.854 1043.142 4382.972 C 1042.137 4385.987 1039.883 4388.486 1038.877 4391.501 C 1037.784 4394.782 1037.358 4409.787 1038.877 4412.825 C 1039.777 4414.623 1042.243 4415.292 1043.142 4417.09 C 1063.276 4457.36 997.484 4346.678 1047.407 4429.885 C 1054.973 4442.494 1063.982 4452.736 1072.996 4464.003 C 1076.198 4468.006 1077.901 4473.173 1081.526 4476.798 C 1085.15 4480.422 1090.318 4482.125 1094.32 4485.327 C 1102.122 4491.568 1107.843 4500.41 1115.644 4506.651 C 1121.549 4511.375 1131.064 4514.722 1136.968 4519.445 C 1143.937 4525.02 1151.324 4530.93 1158.292 4536.505 C 1161.432 4539.017 1163.374 4542.966 1166.822 4545.035 C 1170.677 4547.348 1175.762 4546.987 1179.617 4549.3 C 1183.064 4551.368 1184.698 4555.76 1188.146 4557.829 C 1192.001 4560.142 1197.086 4559.781 1200.941 4562.094 C 1204.389 4564.163 1206.125 4568.393 1209.47 4570.624 C 1212.436 4572.601 1218.959 4573.236 1222.265 4574.888 C 1227.233 4577.372 1230.091 4580.934 1235.059 4583.418 C 1237.576 4584.677 1244.987 4583.418 1247.854 4583.418 C 1259.227 4583.418 1270.599 4583.418 1281.972 4583.418 C 1284.815 4583.418 1287.959 4582.147 1290.502 4583.418 C 1292.3 4584.317 1292.756 4587.683 1294.767 4587.683"/>
      <path style="stroke: rgb(0, 0, 0); stroke-linecap: round; stroke-linejoin: round; vector-effect: non-scaling-stroke; stroke-width: 12px; paint-order: stroke; fill: none; fill-rule: evenodd;" d="M 3800.273 3382.258 C 3779.04 3399.954 3802.963 3379.538 3781.517 3399.452 C 3769.176 3410.911 3770.142 3408.388 3759.634 3419.772 C 3756.376 3423.302 3753.514 3427.184 3750.256 3430.713 C 3741.231 3440.49 3731.708 3449.713 3723.684 3460.411 C 3709.085 3479.876 3725.547 3460.363 3711.18 3477.604 C 3705.197 3484.784 3715.961 3471.261 3706.491 3480.731 C 3705.162 3482.059 3704.456 3483.891 3703.364 3485.419 C 3695.228 3496.81 3701.91 3486.28 3693.986 3499.487 C 3689.05 3507.714 3683.899 3515.738 3679.919 3524.496 C 3671.768 3542.427 3681.166 3522.317 3675.23 3540.126 C 3674.493 3542.337 3672.744 3544.138 3672.104 3546.378 C 3671.674 3547.881 3672.325 3549.52 3672.104 3551.068 C 3671.341 3556.406 3668.694 3564.284 3670.541 3569.824 C 3671.646 3573.14 3673.81 3576.008 3675.23 3579.202 C 3679.275 3588.305 3677.437 3587.631 3684.608 3596.396 C 3686.941 3599.247 3690.09 3601.36 3692.423 3604.211 C 3694.802 3607.119 3696.27 3610.703 3698.675 3613.589 C 3701.506 3616.986 3704.927 3619.841 3708.054 3622.967 C 3717.773 3632.687 3727.31 3642.152 3737.752 3651.102 C 3737.753 3651.104 3759.632 3669.858 3759.634 3669.859 C 3763.052 3672.301 3767.122 3673.72 3770.575 3676.111 C 3773.921 3678.427 3776.488 3681.794 3779.954 3683.926 C 3783.333 3686.006 3787.401 3686.734 3790.895 3688.615 C 3806.747 3697.151 3793.596 3692.867 3809.651 3699.557 C 3809.657 3699.559 3828.403 3705.807 3828.408 3705.809 C 3831.045 3706.768 3833.536 3708.129 3836.223 3708.935 C 3841.313 3710.462 3846.813 3710.381 3851.854 3712.061 C 3854.064 3712.798 3855.845 3714.622 3858.106 3715.187 C 3860.633 3715.819 3863.591 3714.022 3865.921 3715.187 C 3866.58 3715.517 3866.785 3716.517 3867.484 3716.75 C 3868.473 3717.08 3869.588 3716.546 3870.61 3716.75 C 3874.33 3717.494 3877.872 3718.956 3881.552 3719.876 C 3888.26 3721.554 3895.222 3722.752 3901.871 3724.565 C 3933.978 3733.322 3891.103 3722.429 3919.065 3730.818 C 3921.609 3731.581 3924.359 3731.541 3926.88 3732.381 C 3935.631 3735.298 3943.246 3741.644 3951.888 3744.885 C 3953.9 3745.639 3956.166 3745.602 3958.141 3746.448 C 3962.747 3748.422 3968.192 3752.814 3972.208 3755.826 C 3975.631 3758.394 3977.366 3762.016 3980.023 3765.205 C 3981.438 3766.903 3983.274 3768.215 3984.713 3769.894 C 3991.719 3778.068 3997.521 3787.544 4003.469 3796.466 C 4040.856 3852.546 3978.165 3759.107 4011.284 3812.096 C 4012.456 3813.97 4014.689 3814.986 4015.973 3816.785 C 4019.82 3822.171 4022.387 3829.613 4025.352 3835.542 C 4027.092 3839.022 4029.864 3843.002 4031.604 3846.483 C 4033.965 3851.204 4034.861 3857.102 4036.293 3862.113 C 4037.198 3865.282 4038.877 3868.241 4039.419 3871.492 C 4039.676 3873.034 4039.162 3874.639 4039.419 3876.181 C 4040.831 3884.652 4044.321 3893.87 4042.545 3902.752 C 4039.052 3920.219 4033.177 3937.122 4023.789 3952.77 C 4022.072 3955.631 4019.7 3958.046 4017.536 3960.585 C 4007.715 3972.115 3998.649 3984.365 3987.838 3994.972 C 3911.437 4069.932 3957.862 4022.259 3922.191 4051.242 C 3891.208 4076.416 3862.392 4104.416 3829.971 4127.831 C 3809.986 4142.264 3789.825 4156.789 3769.012 4170.033 C 3762.906 4173.919 3756.319 4177.021 3750.256 4180.975 C 3698.344 4214.83 3769.328 4171.595 3714.306 4205.983 C 3708.168 4209.819 3701.687 4213.088 3695.549 4216.924 C 3671.014 4232.259 3682.051 4226.486 3658.036 4243.496 C 3651.904 4247.84 3645.448 4251.709 3639.28 4256.001 C 3616.917 4271.557 3595.401 4288.128 3573.632 4304.455 C 3542.931 4327.48 3511.807 4349.848 3481.412 4373.229 C 3466.158 4384.963 3477.669 4376.754 3464.219 4388.859 C 3457.617 4394.801 3450.627 4400.286 3443.899 4406.053 C 3436.812 4412.127 3441.345 4408.855 3436.084 4415.431 C 3434.243 4417.732 3431.6 4419.326 3429.832 4421.683 C 3429.829 4421.688 3426.709 4427.931 3426.706 4427.935 C 3426.297 4428.548 3425.472 4428.84 3425.143 4429.499 C 3424.91 4429.965 3425.511 4430.693 3425.143 4431.062 C 3424.774 4431.43 3424.046 4430.829 3423.58 4431.062 C 3421.666 4432.018 3421.596 4434.227 3420.453 4435.751 C 3417.049 4440.29 3411.967 4444.238 3407.949 4448.255 C 3402.347 4453.858 3397.508 4462.322 3389.192 4462.322"/>
      <line style="fill: rgb(216, 216, 216); stroke: rgb(0, 0, 0); stroke-linecap: round; stroke-linejoin: round; stroke-width: 12px; vector-effect: non-scaling-stroke; paint-order: stroke;" x1="2614.645" y1="4291.348" x2="3155.441" y2="4632.98"/>
      <line style="fill: rgb(216, 216, 216); stroke: rgb(0, 0, 0); paint-order: stroke; vector-effect: non-scaling-stroke; stroke-width: 12px; stroke-linecap: round; stroke-linejoin: round;" x1="1597.881" y1="4905.97" x2="2440.91" y2="4406.611"/>
    </g>
    <text style="font-size: 36; font-family: Roboto; white-space: pre;" transform="matrix(1, 0, 0, -1, 0, 0)" x="-1849.997" y="-1570.145">https://warthunder.com/en</text>
  </g>
</svg>